<svg width="69" height="78" viewBox="0 0 69 78" fill="none" xmlns="http://www.w3.org/2000/svg">
<path d="M40.95 0V20.475C40.95 22.2851 41.6691 24.0211 42.949 25.301C44.2289 26.5809 45.9649 27.3 47.775 27.3H68.25V65.975C68.25 67.7851 67.5309 69.5211 66.251 70.801C64.9711 72.0809 63.2351 72.8 61.425 72.8H39.7807C43.1789 68.6848 45.1726 63.591 45.4705 58.2623C45.7684 52.9337 44.3549 47.6494 41.4365 43.181C38.5181 38.7127 34.2476 35.2944 29.2486 33.4253C24.2496 31.5563 18.7841 31.3343 13.65 32.7918V6.825C13.65 5.0149 14.3691 3.27893 15.649 1.999C16.9289 0.719061 18.6649 0 20.475 0H40.95ZM45.5 1.1375V20.475C45.5 21.0784 45.7397 21.657 46.1663 22.0837C46.593 22.5103 47.1716 22.75 47.775 22.75H67.1125L45.5 1.1375ZM20.475 77.35C25.9053 77.35 31.1132 75.1928 34.953 71.353C38.7928 67.5132 40.95 62.3053 40.95 56.875C40.95 51.4447 38.7928 46.2368 34.953 42.397C31.1132 38.5572 25.9053 36.4 20.475 36.4C15.0447 36.4 9.8368 38.5572 5.99699 42.397C2.15718 46.2368 0 51.4447 0 56.875C0 62.3053 2.15718 67.5132 5.99699 71.353C9.8368 75.1928 15.0447 77.35 20.475 77.35ZM9.7643 58.4857C9.33712 58.0585 9.09713 57.4791 9.09713 56.875C9.09713 56.2709 9.33712 55.6915 9.7643 55.2643C10.1915 54.8371 10.7709 54.5971 11.375 54.5971C11.9791 54.5971 12.5585 54.8371 12.9857 55.2643L18.2 60.4831V47.775C18.2 47.1716 18.4397 46.593 18.8663 46.1663C19.293 45.7397 19.8716 45.5 20.475 45.5C21.0784 45.5 21.657 45.7397 22.0837 46.1663C22.5103 46.593 22.75 47.1716 22.75 47.775V60.4831L27.9643 55.2643C28.3915 54.8371 28.9709 54.5971 29.575 54.5971C30.1791 54.5971 30.7585 54.8371 31.1857 55.2643C31.6129 55.6915 31.8529 56.2709 31.8529 56.875C31.8529 57.4791 31.6129 58.0585 31.1857 58.4857L22.0857 67.5857C21.6616 68.0088 21.0877 68.2475 20.4886 68.25H20.4614C19.8683 68.2463 19.3002 68.0112 18.878 67.5948L18.8643 67.5811L9.7643 58.4811V58.4857Z" fill="#890095"/>
</svg>
