<svg width="91" height="91" viewBox="0 0 91 91" fill="none" xmlns="http://www.w3.org/2000/svg">
<path d="M85.3125 51.1875H79.0918C78.2624 56.3418 76.3369 61.0221 73.3154 65.2285L77.9365 69.8496C79.0622 70.916 79.625 72.249 79.625 73.8486C79.625 75.4482 79.0622 76.8109 77.9365 77.9365C76.8109 79.0622 75.4482 79.625 73.8486 79.625C72.249 79.625 70.8864 79.0622 69.7607 77.9365L65.2285 73.3154C60.9629 76.3369 56.2826 78.2624 51.1875 79.0918V85.3125C51.1875 86.9121 50.6247 88.2599 49.499 89.356C48.3734 90.452 47.0256 91 45.4556 91C43.8856 91 42.5526 90.452 41.4565 89.356C40.3605 88.2599 39.8125 86.9121 39.8125 85.3125V79.0918C34.6582 78.2624 29.9779 76.3369 25.7715 73.3154L21.0615 77.9365C19.9951 79.0622 18.6621 79.625 17.0625 79.625C15.4629 79.625 14.1003 79.0622 12.9746 77.9365C11.849 76.8109 11.2861 75.4482 11.2861 73.8486C11.2861 72.249 11.849 70.916 12.9746 69.8496L17.5957 65.1396C14.6335 60.9333 12.7376 56.2826 11.9082 51.1875H5.6875C4.08789 51.1875 2.74007 50.6395 1.64404 49.5435C0.548014 48.4474 0 47.1144 0 45.5444C0 43.9744 0.548014 42.6266 1.64404 41.501C2.74007 40.3753 4.08789 39.8125 5.6875 39.8125H11.9082C12.7376 34.7174 14.6631 30.0371 17.6846 25.7715L12.9746 21.1504C11.849 20.0247 11.2861 18.6621 11.2861 17.0625C11.2861 15.4629 11.849 14.1003 12.9746 12.9746C14.1003 11.849 15.4629 11.2861 17.0625 11.2861C18.6621 11.2861 19.9951 11.849 21.0615 12.9746L25.7715 17.6846C30.0371 14.6631 34.7174 12.7376 39.8125 11.9082V5.6875C39.8125 4.14714 40.3605 2.81413 41.4565 1.68848C42.5526 0.562826 43.8856 0 45.4556 0C47.0256 0 48.3734 0.562826 49.499 1.68848C50.6247 2.81413 51.1875 4.14714 51.1875 5.6875V11.9082C56.2826 12.7376 60.9333 14.6335 65.1396 17.5957L69.7607 12.9746C70.8864 11.849 72.249 11.2861 73.8486 11.2861C75.4482 11.2861 76.8109 11.849 77.9365 12.9746C79.0622 14.1003 79.625 15.4629 79.625 17.0625C79.625 18.6621 79.0622 19.9951 77.9365 21.0615L73.3154 25.7715C76.3369 29.9779 78.2624 34.6582 79.0918 39.8125H85.3125C86.8529 39.8125 88.1859 40.3753 89.3115 41.501C90.4372 42.6266 91 43.9744 91 45.5444C91 47.1144 90.4372 48.4474 89.3115 49.5435C88.1859 50.6395 86.8529 51.1875 85.3125 51.1875ZM22.75 34.125C22.75 35.5469 22.8389 37.1169 23.0166 38.835C23.1943 40.5531 23.4609 42.3896 23.8164 44.3447C24.1719 46.2998 24.7495 47.929 25.5493 49.2324C26.3491 50.5358 27.3118 51.1875 28.4375 51.1875C29.8001 51.1875 31.0739 51.1134 32.2588 50.9653C33.4437 50.8172 34.6434 50.5506 35.8579 50.1655C37.0724 49.7804 38.0352 49.188 38.7461 48.3882C39.457 47.5884 39.8125 46.6257 39.8125 45.5L22.75 34.125ZM36.9688 62.5625C36.1986 62.5625 35.5321 62.8439 34.9692 63.4067C34.4064 63.9696 34.125 64.6361 34.125 65.4062C34.125 66.1764 34.4064 66.8429 34.9692 67.4058C35.5321 67.9686 36.1986 68.25 36.9688 68.25H54.0312C54.8014 68.25 55.4679 67.9686 56.0308 67.4058C56.5936 66.8429 56.875 66.1764 56.875 65.4062C56.875 64.6361 56.5936 63.9696 56.0308 63.4067C55.4679 62.8439 54.8014 62.5625 54.0312 62.5625H36.9688ZM51.1875 45.5C51.1875 46.6257 51.543 47.5884 52.2539 48.3882C52.9648 49.188 53.9276 49.7804 55.1421 50.1655C56.3566 50.5506 57.5563 50.8172 58.7412 50.9653C59.9261 51.1134 61.1999 51.1875 62.5625 51.1875C63.6882 51.1875 64.6509 50.5358 65.4507 49.2324C66.2505 47.929 66.8281 46.2998 67.1836 44.3447C67.5391 42.3896 67.8057 40.5531 67.9834 38.835C68.1611 37.1169 68.25 35.5469 68.25 34.125L51.1875 45.5Z" fill="#B30000"/>
</svg>
