<svg width="91" height="91" viewBox="0 0 91 91" fill="none" xmlns="http://www.w3.org/2000/svg">
<path d="M68.25 0H4.55C2.0475 0 0 1.99756 0 4.43902V17.7561C0 20.1976 2.0475 22.1951 4.55 22.1951H68.25C70.7525 22.1951 72.8 20.1976 72.8 17.7561V4.43902C72.8 1.99756 70.7525 0 68.25 0Z" fill="#D1C4E9"/>
<path d="M68.25 26.6342H4.55C2.0475 26.6342 0 28.6317 0 31.0732V44.3903C0 46.8317 2.0475 48.8293 4.55 48.8293H68.25C70.7525 48.8293 72.8 46.8317 72.8 44.3903V31.0732C72.8 28.6317 70.7525 26.6342 68.25 26.6342Z" fill="#D1C4E9"/>
<path d="M68.25 53.2683H4.55C2.0475 53.2683 0 55.2659 0 57.7073V71.0244C0 73.4659 2.0475 75.4634 4.55 75.4634H68.25C70.7525 75.4634 72.8 73.4659 72.8 71.0244V57.7073C72.8 55.2659 70.7525 53.2683 68.25 53.2683Z" fill="#D1C4E9"/>
<path d="M61.4248 46.6097H75.0748V91H61.4248V46.6097Z" fill="#F44336"/>
<path d="M45.5 62.1464H91V75.4634H45.5V62.1464Z" fill="#F44336"/>
</svg>
