<svg width="82" height="74" viewBox="0 0 82 74" fill="none" xmlns="http://www.w3.org/2000/svg">
<path d="M78.1522 20.5148C76.8071 19.7754 74.9473 19.7953 73.5738 19.0247C70.895 17.5061 70.2039 15.2823 70.0902 11.9864C64.232 5.69034 55.479 0.11375 43.2907 0.290063C39.9862 0.338406 36.8752 0.190532 34.3101 1.52709C33.5764 2.53378 34.2987 2.99447 35.1291 3.23334C34.3044 3.62294 33.1612 3.64853 33.3489 5.21259C41.0839 4.12344 54.606 6.98709 53.5851 13.6472C53.3576 15.1259 51.4949 16.707 50.2294 18.0919C46.6406 22.022 42.8414 25.0591 39.5369 28.52L40.4924 29.4755C42.6025 27.9967 44.6045 27.2431 46.4757 27.2431C48.4862 27.2431 49.6607 28.0877 50.1043 28.4745C51.7395 26.717 53.4201 24.9368 55.3368 23.205C56.7217 21.9424 58.3114 20.0769 59.7873 19.8551L62.4831 19.5707C65.7705 19.7015 67.9915 20.3954 69.5072 23.0685C70.275 24.4392 70.2551 26.3104 70.9916 27.6583C71.4893 28.5825 73.6562 31.1277 74.734 31.1561C75.5701 31.1789 76.4488 30.5874 77.2934 29.7627L80.2281 26.8194C81.0528 25.9833 81.65 25.1132 81.6273 24.2714C81.6102 23.1908 79.0679 21.0153 78.1494 20.5177L78.1522 20.5148ZM34.0257 36.1327L31.9214 34.0283C22.992 41.5415 13.3801 50.3458 4.82042 58.4504C3.47249 59.7131 0.688455 61.3568 0.534893 62.8298C0.298862 65.0479 3.23646 66.9959 4.81758 68.5173C6.39586 70.033 8.25852 73.073 10.4852 72.8114C11.9355 72.6891 13.5991 69.8823 14.8759 68.5401C21.5409 61.5513 28.0667 54.431 34.4495 47.1835C33.5622 46.1313 33.0333 45.4915 33.0333 45.4915C32.6437 44.9455 30.4938 41.5955 34.0286 36.1355L34.0257 36.1327ZM55.6951 36.9574C54.6543 36.0531 51.5262 37.364 50.6418 36.6104C49.7602 35.8568 51.1252 33.033 50.4711 32.4756L48.2815 30.6386C48.2815 30.6386 45.8273 28.2783 40.282 33.2776L18.1576 11.1532C17.0343 10.0299 17.4836 5.97188 17.4836 5.97188L7.00158 0L4.45927 2.54516L10.4311 13.0301C10.4311 13.0301 14.492 12.5808 15.6181 13.704L37.7766 35.8654C33.3688 41.0694 35.2286 43.6914 35.2286 43.6914C35.2286 43.6914 35.9055 44.5075 37.0657 45.8811C37.6231 46.5351 40.4441 45.1701 41.2034 46.0517C41.9541 46.9418 40.646 50.0614 41.5446 51.1079C49.126 59.8211 61.2404 73.1071 64.6501 73.1071C67.1867 73.1071 70.3945 71.0483 73.0335 68.4434C75.6639 65.8357 77.6972 62.5995 77.6972 60.0629C77.6972 56.6503 64.4055 44.5417 55.6923 36.9602L55.6951 36.9574Z" fill="#D69A00"/>
</svg>
