<svg width="91" height="91" viewBox="0 0 91 91" fill="none" xmlns="http://www.w3.org/2000/svg">
<path d="M0 12.884L37.1891 7.83521L37.2051 43.5965L0.0337695 43.8073L0 12.8843V12.884ZM37.1714 47.7164L37.1998 83.5089L0.028793 78.4141L0.0266602 47.4765L37.171 47.7164H37.1714ZM41.6794 7.1743L90.9886 0V43.1415L41.6794 43.5313V7.17465V7.1743ZM91 48.0531L90.9883 91L41.6791 84.0621L41.6101 47.9726L91 48.0531Z" fill="#00ADEF"/>
<path fill-rule="evenodd" clip-rule="evenodd" d="M38.5856 57.5499L57.2379 38.8985C60.9416 40.814 65.3465 40.457 68.1769 37.63C70.357 35.4467 71.0933 32.3201 70.4367 29.3018L65.627 34.1017L61.3432 34.9368L56.1606 29.8086L57.0531 25.3943L61.8181 20.6932C58.7997 20.0335 55.6666 20.7633 53.4896 22.9434C50.6561 25.7736 50.3055 30.1783 52.2211 33.885L33.5687 52.5364C29.8619 50.6241 25.457 50.9811 22.6266 53.8049C20.4464 55.9914 19.7102 59.1148 20.37 62.1331L25.1765 57.3364L29.4571 56.4981L34.6461 61.6263L33.7504 66.0406L28.9853 70.7449C32.0006 71.4014 35.1337 70.6747 37.3139 68.4915C40.141 65.6613 40.4948 61.2566 38.5856 57.5499Z" fill="#000E8E"/>
<path fill-rule="evenodd" clip-rule="evenodd" d="M65.0304 59.2551L59.1976 57.3492L51.752 49.9039L49.9033 51.7525L57.3489 59.1914L59.3793 65.1578L69.1549 70.9999L71.0003 69.1546L65.0304 59.2551Z" fill="#000E8E"/>
<path fill-rule="evenodd" clip-rule="evenodd" d="M43.2597 36.2213L27.9637 20.8686C26.6792 19.5809 24.4225 19.7403 22.934 21.2447L21.2352 22.9402C19.7467 24.4446 19.5778 26.6979 20.8686 27.9919L36.1583 43.3446L43.2597 36.2213Z" fill="#000E8E"/>
</svg>
